<svg xmlns="http://www.w3.org/2000/svg" viewBox="0 0 512 512" fill="none">
  <defs>
    <linearGradient id="bgGradient" x1="0%" y1="0%" x2="100%" y2="100%">
      <stop offset="0%" stop-color="#e6f2ff" />
      <stop offset="100%" stop-color="#bae0ff" />
    </linearGradient>
    <linearGradient id="primaryGradient" x1="0%" y1="0%" x2="100%" y2="100%">
      <stop offset="0%" stop-color="#0891e6" />
      <stop offset="100%" stop-color="#0673b8" />
    </linearGradient>
  </defs>
  
  <!-- Background Circle -->
  <circle cx="256" cy="256" r="240" fill="url(#bgGradient)" />
  <circle cx="256" cy="256" r="230" stroke="white" stroke-width="8" fill="none" opacity="0.5" />
  
  <!-- Avatar Face Base -->
  <circle cx="256" cy="240" r="120" fill="white" filter="drop-shadow(0 4px 6px rgba(0,0,0,0.1))" />
  
  <!-- Hair/Headset Abstract -->
  <path d="M136 240c0-66 54-120 120-120s120 54 120 120" stroke="url(#primaryGradient)" stroke-width="24" stroke-linecap="round" fill="none" />
  
  <!-- Eyes -->
  <circle cx="216" cy="240" r="12" fill="#0891e6" />
  <circle cx="296" cy="240" r="12" fill="#0891e6" />
  
  <!-- Smile -->
  <path d="M226 280c0 0 15 10 30 10s30-10 30-10" stroke="#0891e6" stroke-width="6" stroke-linecap="round" fill="none" />
  
  <!-- Medical Cross / AI Symbol on Head -->
  <rect x="244" y="80" width="24" height="24" rx="4" fill="#0d9999" />
  <path d="M256 84v16M248 92h16" stroke="white" stroke-width="4" stroke-linecap="round" />
  
  <!-- Shoulders -->
  <path d="M136 380c0-40 40-80 120-80s120 40 120 80v40H136v-40z" fill="url(#primaryGradient)" />
  
  <!-- Stethoscope Abstract -->
  <path d="M256 380v40" stroke="white" stroke-width="4" stroke-linecap="round" />
  <circle cx="256" cy="430" r="16" fill="#0d9999" stroke="white" stroke-width="4" />
</svg>
